<svg xmlns="http://www.w3.org/2000/svg" width="760" height="360" viewBox="0 0 760 360">
  <rect width="760" height="360" fill="#f7f3ec"/>
  <text x="24" y="30" font-family="Arial, sans-serif" font-size="20" font-weight="700" fill="#24313a">HexGL</text>
  <text x="24" y="51" font-family="Arial, sans-serif" font-size="12" fill="#65757d">Epoch 100 · ACCEPT · Codex game-evolver workflow</text>
  <text x="24" y="344" font-family="Arial, sans-serif" font-size="11" fill="#65757d">Independent vehicle, track, and presentation children merge deterministic race state with browser visual evidence before promotion.</text>
  <defs><marker id="a" markerWidth="8" markerHeight="8" refX="7" refY="4" orient="auto"><path d="M0,0 L8,4 L0,8 Z" fill="#2b8c8c"/></marker></defs>
  <g stroke="#24313a" stroke-width="1.2"><rect x="24" y="78" width="130" height="52" rx="8" fill="#f8e8c7"/><rect x="208" y="78" width="130" height="52" rx="8" fill="#d8eeee"/><rect x="392" y="78" width="130" height="52" rx="8" fill="#e5edd9"/><rect x="576" y="78" width="130" height="52" rx="8" fill="#ede0f4"/><rect x="24" y="190" width="130" height="52" rx="8" fill="#f6d8d3"/><rect x="208" y="190" width="130" height="52" rx="8" fill="#f8e8c7"/><rect x="392" y="190" width="130" height="52" rx="8" fill="#d8eeee"/><rect x="576" y="190" width="130" height="52" rx="8" fill="#e5edd9"/></g>
  <g font-family="Arial, sans-serif" font-size="11" text-anchor="middle" fill="#24313a"><text x="89" y="100">Accepted parent</text><text x="89" y="116">race loop</text><text x="273" y="100">Vehicle child</text><text x="273" y="116">handling + boost</text><text x="457" y="100">Track child</text><text x="457" y="116">gates + hazards</text><text x="641" y="100">Presentation child</text><text x="641" y="116">camera + neon VFX</text><text x="89" y="212">State check</text><text x="89" y="228">lap / checkpoint</text><text x="273" y="212">Balance note</text><text x="273" y="228">speed / risk</text><text x="457" y="212">Evidence merge</text><text x="457" y="228">visual + state</text><text x="641" y="212">Promote</text><text x="641" y="228">next epoch</text></g>
  <g stroke="#2b8c8c" stroke-width="2" marker-end="url(#a)"><path d="M89 104 L273 104"/><path d="M89 104 L457 104"/><path d="M273 104 L641 104"/><path d="M457 104 L89 216"/><path d="M273 104 L273 216"/><path d="M457 104 L273 216"/><path d="M641 104 L457 216"/><path d="M89 216 L457 216"/><path d="M273 216 L457 216"/><path d="M457 216 L641 216"/></g>
  <text x="380" y="66" text-anchor="middle" font-family="Arial, sans-serif" font-size="10" fill="#65757d">HexGL: vehicle, track, and presentation children merge race state and visual evidence</text>
</svg>
